PathFileType	4	(X/Y/Z)	17_1_26_p0_0-640_filt_butterworth.trc
DataRate	CameraRate	NumFrames	NumMarkers	Units	OrigDataRate	OrigDataStartFrame	OrigNumFrames
59.0	59.0	5	27	m	59.0	480	640
Frame#	Time	RHip			RKnee			RAnkle			RBigToe			RSmallToe			RHeel			LHip			LKnee			LAnkle			LBigToe			LSmallToe			LHeel			Neck			Head			Nose			RShoulder			RElbow			RWrist			RThumb			RIndex			RPinky			LShoulder			LElbow			LWrist			LThumb			LIndex			LPinky			
		X1	Y1	Z1	X2	Y2	Z2	X3	Y3	Z3	X4	Y4	Z4	X5	Y5	Z5	X6	Y6	Z6	X7	Y7	Z7	X8	Y8	Z8	X9	Y9	Z9	X10	Y10	Z10	X11	Y11	Z11	X12	Y12	Z12	X13	Y13	Z13	X14	Y14	Z14	X15	Y15	Z15	X16	Y16	Z16	X17	Y17	Z17	X18	Y18	Z18	X19	Y19	Z19	X20	Y20	Z20	X21	Y21	Z21	X22	Y22	Z22	X23	Y23	Z23	X24	Y24	Z24	X25	Y25	Z25	X26	Y26	Z26	X27	Y27	Z27	
480	8.135593220338983	0.2654463671565454	0.41739070862037053	0.8892256853064223	0.2442899107576347	0.5663504141763744	1.3107887381484937	0.2132309392968522	0.7135386628251665	1.708194791243524	0.2601164371690033	0.5314180440724751	1.7362204490434578	0.3119551951141295	0.5938695303854378	1.7503090755069894	0.19268731606058045	0.7521357903985239	1.755975263019807	0.07022722665359472	0.4068184800498611	0.8844940132249752	0.043840841457472864	0.5874391466909656	1.3272565254897835	0.04823990931312479	0.6648170882845011	1.7136042956346313	0.07359246659534427	0.4676069948329945	1.715277704428407	0.0061589905687221835	0.513915075933974	1.7245279007893064	0.06192280954532146	0.7302892933523217	1.762981250541924	0.1689792503412108	0.3539779773541384	0.3033877795032442	0.18860335397643113	0.27838244222561737	0.0659076168349859	0.19138210489654317	0.22781733572795237	0.20405300361599155	0.3072470211820495	0.41320257337192734	0.39371112963402366	0.36048616191754546	0.4062454933474928	0.6374371873474978	0.3685340851911175	0.3980637766279903	0.8917106707660979	0.3013633347505082	0.40992562380270514	1.012710448139602	0.313312408177519	0.4080726205956797	1.0360492426025067	0.3357831009699595	0.48721519292943305	1.0497834089287112	0.01541683411583159	0.37624103419058086	0.3907214853487387	-0.02490103574755974	0.4111519201874616	0.6492124152399406	-0.023294913885240038	0.4234924509369974	0.8908667839322233	0.0047520521748468155	0.44440764067804206	0.9999632140362988	-0.00681760358231053	0.42654969368880913	1.007873325487274	-0.03115403114449826	0.4501007489084817	1.009186119955417
481	8.152542372881356	0.2654632114432602	0.41737892148920025	0.8892018317858904	0.244111084667865	0.5625720896959914	1.3096927340444988	0.21300694422846012	0.7117286824764423	1.7074257044677212	0.26015808257682466	0.5314476798641679	1.7362212589049038	0.3135910261340347	0.5961420861315072	1.7511271756781819	0.19247339792651863	0.7471182252377067	1.7562902307390378	0.0702991144753302	0.4067137039273495	0.8854345621946031	0.04385061138309048	0.5874682666301227	1.3273132832737469	0.04825117258297072	0.6648260762751897	1.71364559176511	0.07319400501489952	0.4614466034425788	1.7131798242367002	0.0067072023163069145	0.5142832579295035	1.725709997040784	0.06187748496814523	0.7302304867918581	1.7629843354797199	0.16897201131018044	0.35403611074201735	0.30339780301400404	0.1897372444031363	0.27895622143872617	0.06577555768679083	0.19126475150963695	0.22787403471335888	0.204047680005719	0.3069480540618566	0.4169344966653753	0.39395117953531916	0.36044430456173626	0.4062751437438104	0.6374240560973292	0.36854398766856833	0.398072447475321	0.8917130012698541	0.3016154217213366	0.40964186738328384	1.013038831833036	0.3135004786000116	0.40834845738916126	1.0357150213763302	0.33580946318985316	0.48718335380505723	1.0498213463440982	0.01455821966263858	0.3758542656580129	0.3911515137334406	-0.024949035149977827	0.41157228987607425	0.6511829788723444	-0.023278211119059252	0.42350476831717926	0.8909123381729076	0.004753516184767411	0.4444225746112293	1.0000049092766325	-0.006709306978865071	0.4265619508288203	1.0078530426112993	-0.029289902895190092	0.4463401155650839	1.008057521292923
482	8.169491525423728	0.26546332955718216	0.41738858363167347	0.889202978902303	0.24446718540073611	0.5613571756586452	1.3102573831899267	0.21300314858846403	0.7113291716279966	1.7072613461811037	0.2601815752034197	0.5314867512759888	1.7362484443340778	0.3146381691265781	0.5988021029362536	1.7525488429305622	0.19192595500581197	0.7454802224305634	1.7550359725577866	0.0704196851437695	0.4066216533669025	0.8867128362202007	0.04384848420828863	0.5875063230816073	1.327395898057479	0.04825253614603737	0.6648188560332047	1.7136876050180248	0.07279839988723734	0.45877326069967905	1.7133126192369974	0.006748627590001315	0.5144923721904986	1.7269637070882176	0.06178454481466576	0.7300213339513886	1.7629432400565916	0.16900056193755209	0.35428536479318556	0.303400348776683	0.19018452911437397	0.2793442979248677	0.06571015633580812	0.1911951673462169	0.22813486789542234	0.20405259440822998	0.306935783799795	0.4184071757993339	0.3940531897142668	0.3604186255179936	0.40626125470424207	0.6373727639562092	0.36854845070220893	0.39806968680673277	0.8916974218350183	0.3017718127263153	0.40941637286176574	1.0139242210056882	0.3135719406979854	0.40849596300203994	1.0358271906422887	0.33583369944499175	0.4871293480854213	1.049802795563577	0.01321209256055932	0.3754981789389383	0.391176511817708	-0.024954722631092566	0.41218563834649435	0.6529269805324683	-0.023279359229724763	0.42351082300432286	0.890930149475235	0.004751575627160589	0.4444335006005469	0.9999145070936656	-0.007295747441764284	0.42780827526651766	1.0083584321720789	-0.02847810556320661	0.4445374872497599	1.007537393994989
483	8.186440677966102	0.26544279916639224	0.4174292308783212	0.8892247322487994	0.24466718664642695	0.5625636472990554	1.3113316018807788	0.21323277707001878	0.7116843161403638	1.7074106520664183	0.26019429222688684	0.531541688777378	1.7362822018741308	0.3149360721822352	0.6002213597163716	1.753371529499223	0.19130712285641285	0.7472504458618945	1.7528189648950914	0.07053315088619486	0.40667508475492886	0.8877289331065432	0.043843471989285954	0.5875381232393516	1.3274663276517713	0.04824730155379273	0.6647915883050852	1.7137272030148722	0.07270784654434798	0.4599671663711409	1.7146055848015638	0.006591622314900405	0.5145306069535086	1.727539961312786	0.061684730101706456	0.7297866445141208	1.7629150849053588	0.16901585195627214	0.35437581142947433	0.303392400318633	0.19020009969599894	0.2793854799873319	0.06596829006229706	0.19118226041650127	0.22827407733529897	0.20405829329356473	0.30703396329643967	0.41843745325444337	0.39407627646250004	0.36041041222837245	0.4062526484741299	0.6373053810532708	0.36855011699799894	0.39806383294249476	0.8916936244207532	0.3017870677615033	0.40912611193668325	1.0151419428712685	0.3135741921897072	0.408494911690858	1.0360224806825897	0.3358464896602199	0.4870612430097157	1.0497694370348185	0.011730340241917199	0.3753355441771259	0.3911179755382198	-0.024951212526124037	0.41268303819193247	0.6540140732288044	-0.0232943460453299	0.42353852797448654	0.8909426720240923	0.004751617883484026	0.44451952202308603	0.9996278634197647	-0.008904965133588783	0.43098757919852676	1.0086066889531788	-0.02848946717724702	0.4448211371098063	1.0076109401910551
484	8.203389830508474	0.265422862278803	0.4174885967720113	0.8892738278326002	0.24451707562006816	0.5660628147938721	1.3119368047755178	0.2137691497596042	0.7134719715004807	1.7081874377173913	0.2602027643354251	0.5316049264014261	1.7363158551773055	0.3148743227476581	0.600465500666485	1.7535256762788665	0.1911718341287285	0.751750555339734	1.7506628094393613	0.07060584535246883	0.40688464312346806	0.8881952202083108	0.04384981802650058	0.5875398677130678	1.3275089797390902	0.048239350506300724	0.6647407809784601	1.7137573018809507	0.07311380788901968	0.4640130307500766	1.7159120753193509	0.006483425855635858	0.5144729911706472	1.7275449459592953	0.06165751837502487	0.7297233860361716	1.7629527955994524	0.16901657587737298	0.35431968994263674	0.30338250027719194	0.19004660739235527	0.2783930510803174	0.06652711233064615	0.19119490386830684	0.22829174073747774	0.204060901704117	0.30714343744936157	0.41813870514958257	0.39409542641865125	0.3604109782008877	0.4062775373738422	0.6373324335229604	0.3685507506221894	0.39806336977856827	0.8917252174138486	0.3016880314654064	0.4088582881196172	1.0161769507195593	0.3135568003593635	0.40842561095498015	1.0361796868926483	0.3358494462984753	0.48700837881144066	1.0497830792142702	0.01068727956911532	0.3753070643404252	0.39110069478109144	-0.024943502973826852	0.41289807505395343	0.6544176974009529	-0.023314256356417044	0.4236175173867	0.8909795461547662	0.004756010312958863	0.4448744482611703	0.9993926441324439	-0.011074687987600054	0.4352256744291509	1.0083996554808472	-0.02925129964221627	0.44815618256064205	1.008530772154025
